<?xml version="1.0" encoding="utf-8"?>
<!-- Generator: Adobe Illustrator 21.0.0, SVG Export Plug-In . SVG Version: 6.00 Build 0)  -->
<svg version="1.1" id="Layer_1" xmlns="http://www.w3.org/2000/svg" xmlns:xlink="http://www.w3.org/1999/xlink" x="0px" y="0px"
	 viewBox="0 0 233.5 237" style="enable-background:new 0 0 233.5 237;" xml:space="preserve">
<style type="text/css">
	.st0{opacity:0.45;fill:#E6E6E6;enable-background:new    ;}
	.st1{fill:#E6E6E6;}
	.st2{fill:#F9CDC1;}
	.st3{fill:#24285B;}
	.st4{opacity:0.31;fill:#CE8172;enable-background:new    ;}
	.st5{fill:#1967D2;}
	.st6{opacity:8.000000e-02;enable-background:new    ;}
	.st7{fill:#FFD200;}
	.st8{fill:#C9C9C9;}
	.st9{opacity:5.000000e-02;enable-background:new    ;}
	.st10{fill:none;stroke:#FFFFFF;stroke-miterlimit:10;}
</style>
<title>innovation</title>
<ellipse class="st0" cx="116.5" cy="224.8" rx="113.3" ry="9.2"/>
<rect x="61" y="110.1" class="st1" width="5.1" height="79.4"/>
<path class="st2" d="M121.1,118c-0.1-1.9-0.4-3.7-0.9-5.5c-0.7-1.7-1.7-3.9-1-5.5s5.3,0.4,6.2,2.5c0.6,1.3,0.9,2.8,1,4.2L121.1,118z
	"/>
<path class="st2" d="M160.6,123.3c0,0-14.3,25.4-27.6,25.6s-12.8-33.5-12.8-33.5l6.8-2.4c0,0,1.3,18.8,5.4,20.2s15.6-29.2,15.6-29.2
	L160.6,123.3z"/>
<path class="st2" d="M193.1,216l-0.2,4.1c0,0,6,3.3,8.4,2.6s1.7-3.5-0.9-3.8s-3.6-3.4-3.6-3.4L193.1,216z"/>
<path class="st2" d="M164.4,216l0.2,4.1c0,0-6.1,3.3-8.4,2.6s-1.7-3.5,0.9-3.8s3.6-3.4,3.6-3.4L164.4,216z"/>
<path class="st3" d="M152.9,152.6l3.8,2.3c10.4,6.6,18.4,16.4,22.7,27.9l12.8,33.3h5.1L187,154.9L152.9,152.6z"/>
<path class="st3" d="M175.6,158.2c-12.2,10.2-10.6,57.9-10.6,57.9h-6.8l-5.3-63.5L175.6,158.2z"/>
<path class="st2" d="M182.6,71.7c1.4,1.2,2,3.1,1.4,4.8l-1.9,4.1c-0.7,2-2.5,3.3-4.6,3.5c-1.3,0.2-2.6-0.7-2.8-2.1
	c-0.2-2.7,0-5.4,0.6-8C175.6,71.1,180.1,69.5,182.6,71.7z"/>
<polygon class="st2" points="178.5,81.4 175.4,92.8 184.2,93.1 183.6,77.3 "/>
<path class="st3" d="M174.9,73.8c-2.4-1.3-2.4-4.3-1.9-6.2c0.2-0.6,0.8-1,1.4-0.8c0.2,0.1,0.4,0.1,0.5,0.3c1.4,1.4,4.2,0.5,5.9,1.4
	c0.7,0.4,1.3,0.8,1.9,1.2c1.5,1.1,2.2,2.8,2,4.7l-0.7,6.2c-1.5,0.4-3.1-0.3-3.8-1.8c-0.7-1.4-0.5-3.2,0.5-4.4
	c-1.5,0.1-3,0.1-4.5-0.2C175.8,74.2,175.3,74.1,174.9,73.8z"/>
<path class="st2" d="M180.5,80.2c1.9-0.1,2.3-2.7,0.9-3s-1.6,1.5-1.6,1.5L180.5,80.2z"/>
<path class="st2" d="M175.3,80.5l-1.8-0.6c-0.4-0.1-0.6-0.5-0.5-1c0-0.1,0.1-0.2,0.2-0.3l1.6-1.7L175.3,80.5z"/>
<path class="st4" d="M176.8,87.9c3.5-2.5,4-5.3,4-5.3c-0.9,0.7-1.9,1.2-3,1.3L176.8,87.9z"/>
<path class="st5" d="M148,104c7.5-13,21.3-12.2,25.9-11.5c1.4,0.2,2.9,0.3,4.3,0.4l5.9,0.2c14.4,2.2,19.3,10.3,19.5,19.9
	c0.3,18.2-16.2,42.1-16.6,42.7l0,0l-19.4-1.4l-14.6-1.1C153,153.2,139,119.8,148,104z"/>
<path class="st6" d="M167.6,154.3c6.5-3.3,9.6-11.2,11.6-16.2c3.2-7.8,1.3-16.5-4.1-23c-4.4-5.2-0.7-9-0.7-9s18,1.8,29.2,6.9
	c0.3,18.2-16.2,42.1-16.6,42.7l0,0l-19.7-1.3L167.6,154.3z"/>
<path class="st2" d="M184.8,114.4c39.3,11.4-1.3,34.1-1.3,34.1l1.3,6.2c0,0,39.2-5.4,36.5-29.9c-1.9-17.2-19.6-25.9-29.8-29.6
	c-5.6-2.1-11.9-0.2-15.5,4.5C169.1,109.2,184.8,114.4,184.8,114.4z"/>
<path class="st2" d="M184.8,154.7c0,0-5.7,3.2-6.9-1s5.5-4.3,5.5-4.3L184.8,154.7z"/>
<path class="st7" d="M91.8,114.4c0.5,0.1,1-0.2,1.2-0.6l10.7,4.5l0.4,3.5l15.2-3.4l-1-2.7c1.1-0.3,2-0.8,2.9-1.5
	c0.6-0.5,1.1-1.1,1.5-1.7c0.5-0.6,0.8-1.3,1.1-2.1c0.4-1.7-0.4-3.4-1.8-4.3c-1.4-0.8-3.2-0.7-4.5,0.3c-0.7,0.4-1.4,1-1.9,1.6
	l-0.7-1.8l-12.2,2.7l0.3,2.7l-9.3-0.9c0-0.6-0.5-1.2-1.2-1.2c-0.5,0-1,0.4-1.1,0.9l-0.5,2.7C90.8,113.7,91.2,114.3,91.8,114.4z
	 M119.5,112.9c-0.5,0.4-1.2,0.7-1.8,0.8l-1.3-3.4c0.5-1,1.2-1.8,2.2-2.3c0.4-0.3,0.9-0.4,1.4-0.5c0.4,0,0.8,0.1,1.1,0.4
	c0.4,0.3,0.6,0.8,0.8,1.2c0,0.5-0.1,0.9-0.4,1.3C121,111.5,120.3,112.3,119.5,112.9L119.5,112.9z"/>
<path class="st1" d="M84.7,114.9c-0.2,0.2-0.1,0.5,0.1,0.6c0.1,0.1,0.4,0.1,0.5,0c0.8-0.7,1.6-1.3,2.6-1.9c0.2-0.1,0.3-0.4,0.2-0.6
	l0,0c-0.1-0.2-0.4-0.3-0.6-0.2C86.5,113.5,85.6,114.1,84.7,114.9L84.7,114.9z"/>
<path class="st1" d="M80.9,119.1c-0.1,0.2,0.1,0.5,0.3,0.5c0.2,0.1,0.4,0,0.5-0.2v-0.1l0,0v-0.1c0.1-0.1,0.1-0.2,0.2-0.3
	c0.1-0.2,0.3-0.4,0.4-0.6l0.2-0.3l0,0v0l0.1-0.1c0.2-0.2,0.4-0.3,0.6-0.5c0.2-0.2,0.1-0.5-0.1-0.6c-0.1-0.1-0.4-0.1-0.5,0
	c-0.8,0.7-1.5,1.5-2,2.5L80.9,119.1z"/>
<path class="st1" d="M78.3,123.7c0,0.3,0.1,0.5,0.4,0.5c0.2,0.1,0.5,0,0.6-0.2c0.1-0.5,0.3-0.9,0.5-1.3c0.1,0,0.1-0.1,0.1-0.2v-0.1
	l0,0v-0.1l0.1-0.2c0.1-0.2,0.2-0.4,0.4-0.6c0.1-0.2,0-0.5-0.2-0.6c-0.2-0.1-0.4-0.1-0.5,0.1C79.1,121.8,78.6,122.7,78.3,123.7
	L78.3,123.7z"/>
<path class="st1" d="M84,112.1h-0.1c-0.2,0.1-0.3,0.4-0.2,0.6c0.1,0.2,0.4,0.3,0.6,0.2c0,0,0.1,0,0.1-0.1c0.9-0.4,1.8-0.7,2.8-0.9
	c0.2-0.1,0.3-0.3,0.3-0.6c-0.1-0.2-0.2-0.3-0.4-0.3C86,111.3,85,111.6,84,112.1L84,112.1z"/>
<path class="st1" d="M77.5,116.9c-0.1,0.2-0.1,0.5,0.1,0.6c0.2,0.1,0.5,0.1,0.6-0.1c0.7-0.8,1.6-1.6,2.5-2.2l0,0
	c0.2-0.2,0.2-0.4,0.1-0.6c-0.2-0.2-0.4-0.2-0.6-0.1C79.1,115.2,78.3,116,77.5,116.9L77.5,116.9z"/>
<path class="st1" d="M74.1,123.3L74.1,123.3c0.2,0.1,0.5,0,0.6-0.3c0.1-0.3,0.1-0.5,0.2-0.8l0.2-0.4l0.1-0.2c0,0,0,0,0-0.1l0,0
	c0.1-0.2,0.3-0.4,0.4-0.7l0.2-0.3l0.1-0.1l0,0l0.1-0.1l0.1-0.1c0.1-0.2,0.1-0.5-0.1-0.6c-0.2-0.1-0.4-0.1-0.5,0
	c-0.8,0.8-1.4,1.9-1.7,3C73.7,123.1,73.9,123.3,74.1,123.3z"/>
<path class="st1" d="M77.3,128.2c0,0.2,0.2,0.5,0.4,0.5c0.1,0,0.2,0,0.3-0.1c0.1-0.1,0.1-0.2,0.2-0.3c0-0.2,0-0.4,0.1-0.6
	c0.1-0.2,0.1-0.4,0.2-0.6c0-0.1,0-0.2,0-0.3c0-0.1-0.1-0.2-0.2-0.2c-0.1,0-0.2,0-0.3,0c-0.1,0-0.2,0.1-0.2,0.2
	C77.5,127.2,77.4,127.7,77.3,128.2L77.3,128.2z"/>
<path class="st1" d="M85.8,118.4c-0.1,0.2,0,0.5,0.2,0.6c0,0,0,0,0,0l0,0c0.2,0.1,0.5,0.1,0.6-0.1c0.7-1.2,1.6-2.2,2.7-3l0,0
	c0.2-0.2,0.2-0.4,0.1-0.6c-0.2-0.2-0.4-0.2-0.6-0.1C87.6,116,86.6,117.1,85.8,118.4C85.9,118.4,85.8,118.4,85.8,118.4z"/>
<path class="st1" d="M82.8,123.9c0.1,0.2,0.3,0.4,0.5,0.3c0.2,0,0.5-0.2,0.5-0.4c0,0,0-0.1,0-0.1l0,0c0-0.1,0.1-0.1,0.1-0.2
	c0-0.1,0.1-0.2,0.1-0.3c0.1-0.2,0.2-0.6,0.2-0.7s0.1-0.2,0.1-0.3l0.1-0.2c0,0,0-0.1,0-0.1l0,0v-0.1l0.1-0.1c0.1-0.1,0.1-0.2,0.2-0.3
	c0.1-0.2,0.1-0.5-0.1-0.6c-0.2-0.1-0.5-0.1-0.6,0.1C83.4,121.8,83,122.8,82.8,123.9L82.8,123.9z"/>
<path class="st1" d="M82.8,130.6L82.8,130.6c0.2,0,0.5-0.2,0.5-0.4V128c0.1-0.2-0.1-0.5-0.3-0.5s-0.5,0.1-0.5,0.3c0,0,0,0.1,0,0.1
	v2.3C82.4,130.4,82.6,130.6,82.8,130.6z"/>
<polygon class="st8" points="89.5,222.8 37.7,222.8 33.1,179.5 94.1,179.5 "/>
<path class="st1" d="M43.9,126.8c14.3,5.4,17.6,16.4,17.6,16.4s-9.9,6.1-24.1,0.7c-8.6-3.3-15.9-9.5-20.6-17.5
	C25.7,123.5,35.2,123.6,43.9,126.8z"/>
<path class="st9" d="M61.5,143.2c0,0-9.9,6.1-24.1,0.7c-8.6-3.3-15.9-9.5-20.6-17.5L61.5,143.2z"/>
<path class="st1" d="M83.3,143.7C69,149,65.6,160.1,65.6,160.1s9.8,6.1,24.1,0.8c8.6-3.4,15.9-9.5,20.6-17.5
	C101.5,140.4,92,140.5,83.3,143.7z"/>
<path class="st9" d="M65.6,160.1c0,0,9.8,6.1,24.1,0.8c8.6-3.4,15.9-9.5,20.6-17.5L65.6,160.1z"/>
<ellipse class="st8" cx="62.6" cy="109.9" rx="15.1" ry="6.1"/>
<circle class="st7" cx="62.6" cy="45.3" r="40.9"/>
<rect x="46" y="83.3" class="st3" width="33.3" height="26.6"/>
<polygon class="st10" points="69.3,86.2 56,86.2 45,42.4 80.2,42.4 "/>
</svg>
