<?xml version="1.0" encoding="utf-8"?>
<!-- Generator: Adobe Illustrator 21.0.0, SVG Export Plug-In . SVG Version: 6.00 Build 0)  -->
<svg version="1.1" id="Layer_1" xmlns="http://www.w3.org/2000/svg" xmlns:xlink="http://www.w3.org/1999/xlink" x="0px" y="0px"
	 viewBox="0 0 249.3 168" style="enable-background:new 0 0 249.3 168;" xml:space="preserve">
<style type="text/css">
	.st0{fill:#F9CDC1;}
	.st1{fill:#FFD200;}
	.st2{fill:#24285B;}
	.st3{opacity:8.000000e-02;enable-background:new    ;}
	.st4{opacity:0.57;fill:#FFFFFF;enable-background:new    ;}
	.st5{opacity:0.31;fill:#CE8172;enable-background:new    ;}
	.st6{fill:#1967D2;}
</style>
<title>man-searching-01</title>
<path class="st0" d="M138.5,41.1c23-26,65.4,9.2,65.4,9.2l8.2-6.3c0,0-25.6-32.6-50.9-35.1S110.7,25,110.7,25S115.6,67.1,138.5,41.1
	z"/>
<rect x="129.8" y="22.4" class="st1" width="86.9" height="56.1"/>
<path class="st0" d="M117.6,146.8l0.5,5.2c0,0-8.2,4.6-11.5,3.9s-2.6-4.4,1-4.8s4.8-4.6,4.8-4.6L117.6,146.8z"/>
<path class="st0" d="M182.4,140.7l5.1-0.9c0,0,5.3,7.8,4.8,11.1s-4.2,2.9-4.9-0.7s-4.9-4.4-4.9-4.4L182.4,140.7z"/>
<path class="st2" d="M141.6,87.5l-9.9,11.2c-32.6,12.8-20,48.8-20,48.8h9.7c-6.7-43.4,36.8-29.7,50.6-37.3s10-25.6,10-25.6
	L141.6,87.5z"/>
<rect x="57.6" y="66.1" transform="matrix(0.723 -0.6909 0.6909 0.723 -39.3709 63.84)" class="st1" width="4.6" height="29.9"/>
<rect x="57.6" y="66.1" transform="matrix(0.723 -0.6909 0.6909 0.723 -39.3709 63.84)" class="st3" width="4.6" height="29.9"/>
<rect x="59.3" y="64.5" transform="matrix(0.723 -0.6909 0.6909 0.723 -37.8542 64.531)" class="st1" width="4.6" height="29.9"/>
<ellipse transform="matrix(0.723 -0.6909 0.6909 0.723 -33.7411 51.4442)" class="st1" cx="47.3" cy="67.8" rx="9.3" ry="13.9"/>
<ellipse transform="matrix(0.723 -0.6909 0.6909 0.723 -33.7411 51.4442)" class="st3" cx="47.3" cy="67.8" rx="9.3" ry="13.9"/>
<ellipse transform="matrix(0.723 -0.6909 0.6909 0.723 -32.2304 52.1409)" class="st1" cx="48.9" cy="66.3" rx="9.3" ry="13.9"/>
<ellipse transform="matrix(0.723 -0.6909 0.6909 0.723 -32.2304 52.1409)" class="st4" cx="48.9" cy="66.3" rx="6.1" ry="9.2"/>
<path class="st0" d="M81.2,17.8c2.5-0.3,4.9,0.9,6,3.1l2.1,5.6c1.6,3.1,0.4,6-0.9,7.8l0,0c-1.1,1.5-3.1,1.8-4.6,0.7
	c-3.6-2.6-7.3-8-7.3-8C74.1,23.9,76.7,18.1,81.2,17.8z"/>
<polygon class="st0" points="88.4,30.9 100.4,40.7 102.5,28.8 85.8,22.1 "/>
<path class="st2" d="M76.1,27.2c-3.6,1.1-6.4-1.7-7.8-3.9c-0.4-0.7-0.2-1.7,0.5-2.2c0.2-0.1,0.5-0.2,0.7-0.2
	c2.7-0.1,4.4-3.6,6.9-4.4c1-0.3,2-0.5,3-0.7c2.4-0.4,4.9,0.5,6.4,2.5l5.4,6.4c-1,1.8-3.2,2.7-5.2,2c-2.1-0.6-3.6-2.5-3.8-4.6
	c-1.3,1.6-2.7,3-4.3,4.2C77.3,26.6,76.7,27,76.1,27.2z"/>
<path class="st0" d="M87.4,27.6c1.8-1.9-0.5-4.7-2.1-3.7s0,3,0,3L87.4,27.6z"/>
<path class="st0" d="M82.9,33l-2.2,1.2c-0.5,0.3-1.1,0.2-1.4-0.3c-0.1-0.2-0.2-0.3-0.2-0.5L79,30.3L82.9,33z"/>
<path class="st5" d="M94.1,35.5c-0.1-3.9-2.6-7.3-6.2-8.7c1.3,1.4,1.8,5.2,1.8,5.2L94.1,35.5z"/>
<path class="st3" d="M199.8,78.6h-18.8l-27.3-48.2c46.4,8.2,46.1,46.8,46.1,46.8L199.8,78.6z"/>
<path class="st6" d="M129.3,76c14.3,0,12.3,11.5,12.3,11.5l40.4-2.8l-1.6-11.1c-3.7-25.1-21.7-45.9-46.3-52.3
	c-5.7-1.5-10.8-2-14.4-1.5c-2.8,0.4-5.6,1.1-8.3,2.2c-6.2,2.6-10.6,8.2-11.7,14.8l-1.4,8C96.8,76.2,114.9,76,129.3,76z"/>
<path class="st3" d="M151.3,87l30.6-2.3l-3-17.8c-21.5-31-41.1-34.5-41.1-34.5L151.3,87z"/>
<path class="st0" d="M124.4,68.8c7.8,18.7-49.8,7.8-49.8,7.8l-1.5,10.8c48.2,14.2,83.7,20.9,83-16.3c-0.4-20.6-10.4-32.8-19.2-39.5
	c-10.6-8.1-25.4,2.2-21.6,15C117.3,53.4,121.2,61,124.4,68.8z"/>
<path class="st2" d="M170.7,103.7c-24.9,25.6,13.6,35.1,13.6,35.1l-1.9,8.7c-48.1-7.7-46.9-48.8-46.9-48.8L170.7,103.7z"/>
<ellipse class="st3" cx="59.9" cy="152.1" rx="5.2" ry="1.9"/>
<ellipse class="st3" cx="39.9" cy="147.1" rx="5.2" ry="1.9"/>
<ellipse class="st3" cx="79.7" cy="146.6" rx="5.3" ry="2"/>
<path class="st0" d="M73.2,86.6c-11.9,3.8-14.5,1.1-13.3-4.1s14.4-3.8,14.4-3.8L73.2,86.6z"/>
<path class="st0" d="M196.8,84.7c7.6,1.6,9.6-6.1,9.6-6.1C194.6,73.6,189.1,83.1,196.8,84.7z"/>
</svg>
