<?xml version="1.0" encoding="utf-8"?>
<!-- Generator: Adobe Illustrator 21.0.0, SVG Export Plug-In . SVG Version: 6.00 Build 0)  -->
<svg version="1.1" id="Layer_1" xmlns="http://www.w3.org/2000/svg" xmlns:xlink="http://www.w3.org/1999/xlink" x="0px" y="0px"
	 viewBox="0 0 264.1 152" style="enable-background:new 0 0 264.1 152;" xml:space="preserve">
<style type="text/css">
	.st0{fill:#95B9EA;}
	.st1{fill:#FFD200;}
	.st2{fill:#FFFFFF;}
	.st3{fill:#F9CDC1;}
	.st4{opacity:0.45;fill:#E6E6E6;enable-background:new    ;}
	.st5{fill:#1967D2;}
	.st6{opacity:8.000000e-02;enable-background:new    ;}
	.st7{fill:#24285B;}
	.st8{fill:#F4A28C;}
	.st9{opacity:0.31;fill:#CE8172;enable-background:new    ;}
	.st10{opacity:0.58;fill:#95B9EA;enable-background:new    ;}
	.st11{opacity:0.73;fill:#95B9EA;enable-background:new    ;}
</style>
<title>man-sitting</title>
<rect x="1.2" y="33.3" class="st0" width="39.1" height="4.4"/>
<rect x="12.4" y="21.1" class="st1" width="35" height="4.4"/>
<rect x="27.3" y="55" class="st1" width="18.2" height="4.4"/>
<rect x="12.4" y="43.9" class="st0" width="46.6" height="4.4"/>
<rect x="4.1" y="55.4" class="st2" width="17.5" height="4.4"/>
<rect x="12.4" y="11" class="st1" width="35" height="4.4"/>
<rect class="st0" width="36.1" height="4.4"/>
<rect x="43.7" class="st0" width="25.6" height="4.4"/>
<path class="st3" d="M131,51.1c0,0-20.6,7.6-23.4,21.3s-18.4,35.4-40.4-7L60,68.2c0,0,20.1,68,55.5,34.8S131,51.1,131,51.1z"/>
<ellipse class="st4" cx="153.8" cy="140.1" rx="108.3" ry="10.2"/>
<path class="st5" d="M167.3,48.2c0,0-22.2-8.6-42.7,7.1s6.1,71.1,6.1,71.1l38.4,1.3C169.1,127.7,219.4,81.6,167.3,48.2z"/>
<path class="st6" d="M157.4,54.4c0,0-14,22.1,0.4,35.6c20.3,19.2-3.4,20.9-27.1,21.6l24.8,18.8l31-17l-3.5-22.2L157.4,54.4z"/>
<path class="st7" d="M136.4,124.4c14.7,0.5,18.5-0.6,32.1-6.3c8.3-3.4,18.1-5.9,25.6-2.8c15.9,6.6,3.2,32.4-37.6,26.1l-37.6-1.7
	c0,0-14.4,0-17-5.2c-3.1-6.3,3.4-12.9,33.5-10.3L136.4,124.4z"/>
<path class="st8" d="M136.2,28.1c-0.1,3,0.1,5.9,0.8,8.8c0.4,1.4,1.9,2.2,3.3,1.8c0,0,0,0,0,0l0,0c2.3-0.5,4-2.3,4.5-4.6l1.4-4.7
	c0.4-2-0.5-4-2.3-5.1C140.8,22.2,136.2,24.8,136.2,28.1z"/>
<polygon class="st8" points="145.9,30.2 149.4,47.4 139.8,48.6 141.1,35.6 "/>
<path class="st7" d="M137.5,28.2c1.6,0,3.3-0.2,4.9-0.6c-0.9,1.5-0.8,3.4,0.2,4.9c1,1.4,2.8,2,4.4,1.3l-0.4-6.9c0-2-1.2-3.8-2.9-4.7
	c-0.8-0.4-1.5-0.7-2.3-1c-2-0.7-4.8,0.7-6.7-0.6c-0.6-0.4-1.4-0.2-1.8,0.4c-0.1,0.2-0.2,0.4-0.2,0.6c-0.2,2.1,0.3,5.4,3.1,6.4
	C136.4,28.1,137,28.2,137.5,28.2z"/>
<path class="st8" d="M142.1,32.4c0,0,0-2,1.5-2s1.6,3-0.5,3.4L142.1,32.4z"/>
<path class="st8" d="M136.2,31.4l-1.4,2.1c-0.3,0.4-0.1,0.9,0.3,1.2c0.1,0.1,0.2,0.1,0.3,0.1l2,0.3L136.2,31.4z"/>
<path class="st8" d="M153.4,114.9c0,0-11.7-1.8-11.3,5.4l10.8,0.9L153.4,114.9z"/>
<path class="st9" d="M140.7,38.4c1.2-0.4,2.2-1.1,3-2c0,0,0,3.2-3.4,6.5L140.7,38.4z"/>
<polygon class="st1" points="119.2,123.9 110.1,96.4 142.8,96.4 147.1,120.8 159.5,121.7 159.5,124.9 "/>
<circle class="st2" cx="128.6" cy="109.2" r="3.7"/>
<path class="st3" d="M67.2,65.5c0,0-2.5-7.9-6.9-10.1c-0.4-0.2-0.9-0.1-1.1,0.3c-0.1,0.2-0.1,0.3-0.1,0.5L60,60c0,0-5.7,3.7,0,8.3
	L67.2,65.5z"/>
<path class="st3" d="M164,136.5c0,0-14,1.9-10.6,5.1s11.7,0.8,11.7,0.8L164,136.5z"/>
<path class="st3" d="M140.1,140.7l2.9-4.3c0,0,8.9,6,8,8.7C149.3,150.5,140.1,140.7,140.1,140.7z"/>
<path class="st3" d="M156.4,58.8c0-5.6,4.6-10.1,10.2-10.1c1.2,0,2.3,0.2,3.4,0.6c7.1,2.5,16.1,7.6,22.1,17.5
	c11.2,18.7,30.8,68.5-39.2,54.4l0.6-7.3c0,0,27.3,2.9,29.9-9.4C185.6,93.9,156.4,81.9,156.4,58.8z"/>
<path class="st10" d="M226.3,129.7c0,0-7-1.9-8.6-8.5c0,0,10.9-2.2,11.2,9.1L226.3,129.7z"/>
<path class="st11" d="M227.1,129c0,0-4.9-7.8-0.6-15.1c0,0,8.3,5.3,4.6,15.1L227.1,129z"/>
<path class="st0" d="M228.4,129c0,0,2.6-8.2,10.5-9.8c0,0,1.5,5.3-5.1,9.8L228.4,129z"/>
<polygon class="st7" points="223.3,128.8 224.8,138.6 233.8,138.6 235.1,128.9 "/>
</svg>
