<?xml version="1.0" encoding="utf-8"?>
<!-- Generator: Adobe Illustrator 21.0.0, SVG Export Plug-In . SVG Version: 6.00 Build 0)  -->
<svg version="1.1" id="Layer_1" xmlns="http://www.w3.org/2000/svg" xmlns:xlink="http://www.w3.org/1999/xlink" x="0px" y="0px"
	 viewBox="0 0 213.7 226" style="enable-background:new 0 0 213.7 226;" xml:space="preserve">
<style type="text/css">
	.st0{fill:#E6E6E6;}
	.st1{fill:#A8A8A8;}
	.st2{fill:none;stroke:#FFFFFF;stroke-width:2;stroke-linecap:round;stroke-linejoin:round;}
	.st3{fill:#FFFFFF;}
	.st4{opacity:8.000000e-02;enable-background:new    ;}
	.st5{fill:#F9CDC1;}
	.st6{fill:#24285B;}
	.st7{opacity:0.45;fill:#E6E6E6;enable-background:new    ;}
	.st8{fill:#F4A28C;}
	.st9{opacity:0.31;fill:#CE8172;enable-background:new    ;}
	.st10{fill:#1967D2;}
	.st11{opacity:0.58;fill:#95B9EA;enable-background:new    ;}
	.st12{opacity:0.73;fill:#95B9EA;enable-background:new    ;}
	.st13{fill:#95B9EA;}
	.st14{fill:#FFD200;}
	.st15{fill:none;stroke:#FFFFFF;stroke-width:2;stroke-linecap:round;stroke-linejoin:bevel;}
</style>
<title>note-taking</title>
<rect x="2.2" y="2.1" class="st0" width="77.1" height="83.9"/>
<rect x="54" y="12.6" class="st1" width="13.4" height="13.4"/>
<polyline class="st2" points="58.1,19.4 60,22.3 63.5,17.1 "/>
<rect x="15.6" y="17" class="st3" width="31.1" height="5.3"/>
<rect x="54" y="37" class="st1" width="13.4" height="13.4"/>
<polyline class="st2" points="58.1,43.8 60,46.7 63.5,41.5 "/>
<rect x="15.6" y="41.4" class="st3" width="31.1" height="5.3"/>
<rect x="54" y="59.7" class="st1" width="13.4" height="13.4"/>
<polyline class="st2" points="58.1,66.6 60,69.5 63.5,64.3 "/>
<rect x="15.6" y="64.1" class="st3" width="31.1" height="5.3"/>
<rect x="2.2" y="132.7" class="st0" width="77.1" height="52.4"/>
<path class="st4" d="M67.4,86.1H51C51.6,63,79.3,43.7,79.3,43.7L67.4,86.1z"/>
<path class="st5" d="M121.2,97.3c0,0,21.6,22.7,36.4,7.2s-8.8-39.2-8.8-39.2l-25.2-20L121.2,97.3z"/>
<rect x="137.1" y="59.4" transform="matrix(0.6179 -0.7863 0.7863 0.6179 8.1239 138.4652)" class="st6" width="18.8" height="2.9"/>
<path class="st5" d="M144.9,70.8c-6.1-0.1-7.1-7.1-3.5-8.7s7.4,3.1,7.4,3.1S151,70.9,144.9,70.8z"/>
<ellipse transform="matrix(1 -4.188778e-03 4.188778e-03 1 -0.8819 0.5664)" class="st7" cx="134.8" cy="210.8" rx="76.7" ry="13.5"/>
<path class="st5" d="M120.3,204.9l0.5,5.2c0,0,7,2.3,9.5,1.2s1.3-3.8-1.6-3.6s-4.4-2.8-4.4-2.8L120.3,204.9z"/>
<path class="st5" d="M102.9,10.4c-1.9,1.2-2.9,3.5-2.3,5.8l1.8,5.2c0.6,2.6,2.7,4.5,5.2,5c1.6,0.4,3.2-0.5,3.7-2.1c0,0,0,0,0,0
	c1-4,0.5-10,0.5-10C111.6,10.6,106.3,8,102.9,10.4z"/>
<polygon class="st5" points="106.6,22.9 108.7,37.4 97.9,36.5 100.9,17.1 "/>
<path class="st8" d="M104.3,21.1c-2.4-0.3-2.4-3.6-0.7-3.8s1.8,2.1,1.8,2.1L104.3,21.1z"/>
<path class="st5" d="M110.7,22.3l2.3-0.4c0.5-0.1,0.9-0.7,0.7-1.2c0-0.1-0.1-0.2-0.1-0.3l-1.6-2.3L110.7,22.3z"/>
<path class="st9" d="M107.8,31.1c-4-3.5-4.1-7.1-4.1-7.1c0.9,1,2.2,1.8,3.5,2.1L107.8,31.1z"/>
<path class="st10" d="M96,131.2l35.9-4.7c0,0,2.4-30.8,3.5-55.9s-25.6-33-25.6-33l-13.5-1.1C36.2,49.9,96,131.2,96,131.2z"/>
<path class="st4" d="M92.7,126.5l3.2,4.7l35.9-4.7l2-28.3c0,0,1.7-6.8-14.1-5.1s-18.3-3.7-17.4-19c0.6-8.8-4-17.2-11.8-21.5
	C63.9,73.8,92.7,126.5,92.7,126.5z"/>
<path class="st6" d="M96,131.3c2.7,10.5,11.6,13.2,16.9,13.9c3.2,0.4,6.3,1.5,9,3.2l4.9,3c3.4,2.1,4.5,6.7,2.3,10.1
	c-0.4,0.7-0.9,1.3-1.5,1.8l-13.9,11.5l6.2,4.5l18.5-10.4c10.1-5.7,13.6-18.4,8-28.5c-1.2-2.2-2.9-4.2-4.8-5.8l-9.6-8L96,131.3z"/>
<path class="st6" d="M119,135c-0.9,20.7,7.4,69.8,7.4,69.8l-6.1,0.1L96,131.2L119,135z"/>
<path class="st5" d="M82.5,103.9c7.5,3,32.7-14.4,32.7-14.4l5.2,6c-50.7,52.1-62.2,19.8-58.3-13c1.9-16.2,9.3-26.8,16.2-33.3
	c4-3.8,10.3-3.6,14,0.3c2,2.1,3,5.1,2.7,8C92.6,78.1,76.8,101.7,82.5,103.9z"/>
<path class="st11" d="M168.3,200.7c-0.4-14-14-11.2-14-11.2c1.9,8.1,10.7,10.5,10.7,10.5L168.3,200.7z"/>
<path class="st12" d="M171.1,199.1c4.5-12.2-5.8-18.7-5.8-18.7c-5.4,9.1,0.8,18.7,0.8,18.7H171.1z"/>
<path class="st13" d="M174.3,199.1c8.1-5.6,6.3-12.2,6.3-12.2c-9.8,1.9-13,12.2-13,12.2L174.3,199.1z"/>
<polygon class="st6" points="175.9,198.9 174.3,211.1 163.1,211.1 161.3,198.9 "/>
<rect x="113.8" y="72.9" transform="matrix(0.1302 -0.9915 0.9915 0.1302 30.4414 207.3664)" class="st14" width="39.2" height="26.9"/>
<path class="st8" d="M115.1,89.5c0,0,9.2-8.2,11.7-4.4s-7.9,8.8-7.9,8.8L115.1,89.5z"/>
<circle class="st4" cx="69" cy="144.4" r="3.2"/>
<circle class="st4" cx="69" cy="158.3" r="3.2"/>
<circle class="st4" cx="69" cy="172.1" r="3.2"/>
<line class="st15" x1="19.1" y1="144.4" x2="57.1" y2="144.4"/>
<line class="st15" x1="19.1" y1="158.3" x2="57.1" y2="158.3"/>
<line class="st15" x1="19.1" y1="172.1" x2="57.1" y2="172.1"/>
<path class="st6" d="M109.5,14.6c-1.8,0.3-3.6,0.4-5.3,0.2c1.2,1.5,1.5,3.5,0.6,5.2c-0.8,1.7-2.7,2.6-4.5,2.1l-0.8-7.4
	c-0.3-2.1,0.6-4.3,2.3-5.6c0.7-0.6,1.5-1.1,2.3-1.5c2-1.1,5.3-0.1,7-1.7c0.5-0.5,1.4-0.5,2,0c0.2,0.2,0.3,0.4,0.3,0.6
	c0.6,2.2,0.6,5.8-2.3,7.4C110.6,14.3,110.1,14.5,109.5,14.6z"/>
</svg>
