<?xml version="1.0" encoding="utf-8"?>
<!-- Generator: Adobe Illustrator 21.0.0, SVG Export Plug-In . SVG Version: 6.00 Build 0)  -->
<svg version="1.1" id="Calque_1" xmlns="http://www.w3.org/2000/svg" xmlns:xlink="http://www.w3.org/1999/xlink" x="0px" y="0px"
	 viewBox="0 0 279.3 176.5" style="enable-background:new 0 0 279.3 176.5;" xml:space="preserve">
<style type="text/css">
	.st0{display:none;}
	.st1{display:inline;fill:#FFF2F6;}
	.st2{fill:#1967D2;}
	.st3{fill:#F9CDC1;}
	.st4{opacity:9.000000e-02;enable-background:new    ;}
	.st5{opacity:0.54;fill:#FFFFFF;enable-background:new    ;}
	.st6{opacity:0.58;fill:#95B9EA;enable-background:new    ;}
	.st7{opacity:0.73;fill:#95B9EA;enable-background:new    ;}
	.st8{fill:#95B9EA;}
	.st9{fill:#24285B;}
	.st10{fill:#F4A28C;}
	.st11{fill:#BED3ED;}
	.st12{fill:#FFFFFF;}
	.st13{display:none;fill:#F4D7E5;}
	.st14{fill:none;stroke:#24285B;stroke-width:2;stroke-miterlimit:10;}
	.st15{opacity:0.38;fill:#BED3ED;enable-background:new    ;}
</style>
<g id="Calque_2" class="st0">
	<rect x="-5" y="-56.5" class="st1" width="290.5" height="236"/>
</g>
<g id="Layer_1">
	<path class="st2" d="M99.9,39.5c0,0-20.9,6.3-26.9,23.1s-0.6,48.2,23.6,67.3s62.8,4,62.8,4s26.5-35.8,15.3-61.6
		C163.7,46.5,145.2,20.4,99.9,39.5z"/>
	<path class="st3" d="M59.9,111.5c0,0-11,43.6,5.5,43.6s44.9-0.6,44.9-0.6l-21.3-38L59.9,111.5z"/>
	<path class="st3" d="M101.9,39.6c0,0-11.8,12.7,0,20.5s26-3.5,22.6-11.3s-13.7-13.3-13.7-13.3L101.9,39.6z"/>
	<path class="st4" d="M101.9,39.6c0,0-11.8,12.7,0,20.5s26-3.5,22.6-11.3s-13.7-13.3-13.7-13.3L101.9,39.6z"/>
	<path class="st2" d="M71.7,65.2c-5.4,11.4-13.9,31.5-13.4,46l30.8,5.3c0,0,17.2-40.5,0.4-55.1c-4.8-4.1-12-3.6-16.1,1.2
		C72.7,63.4,72.1,64.3,71.7,65.2z"/>
	<path class="st5" d="M71.7,65.2c-5.4,11.4-13.9,31.5-13.4,46l30.8,5.3c0,0,17.2-40.5,0.4-55.1c-4.8-4.1-12-3.6-16.1,1.2
		C72.7,63.4,72.1,64.3,71.7,65.2z"/>
	<path class="st2" d="M157.1,43c11.3,8,26,23.3,31.1,51l-28.1,10.5c0,0-24-24.4-22.3-52.2c0.4-6.8,6.3-11.9,13.1-11.5
		C153.1,41,155.3,41.7,157.1,43z"/>
	<path class="st5" d="M157.1,43c11.3,8,26,23.3,31.1,51l-28.1,10.5c0,0-24-24.4-22.3-52.2c0.4-6.8,6.3-11.9,13.1-11.5
		C153.1,41,155.3,41.7,157.1,43z"/>
	<path class="st6" d="M22.8,140c0,0-12.4-3.4-15.1-14.9c0,0,19.2-3.9,19.8,16L22.8,140z"/>
	<path class="st7" d="M24.3,138.8c0,0-8.7-13.7-1-26.5c0,0,14.6,9.3,8.1,26.5H24.3z"/>
	<path class="st8" d="M26.5,138.8c0,0,4.6-14.5,18.4-17.3c0,0,2.6,9.4-9,17.3H26.5z"/>
	<polygon class="st9" points="17.5,138.4 20,155.6 35.9,155.7 38.2,138.5 	"/>
	<path class="st3" d="M92.9,24.1c0,0,2.8,19.8,13.3,19.2s4.1-22.6,4.1-22.6s-1.4-11.2-7.7-11.2C96.3,9.5,88.2,10.3,92.9,24.1z"/>
	<path class="st9" d="M91.7,26.6l2.1,2c0,0,10.8-5.7,10.8-14.5c0,0,2,7.6,6.5,10.4c0,0,4.5-15.3-3.9-17c0,0-2.7-4.3-5.4-4.6
		c-2.2-0.3-13.7,3.3-14.5,13.2C87.2,20,88.8,23.9,91.7,26.6z"/>
	<path class="st3" d="M93.9,28.6c0,0-5.6-0.3-4.7,2.3s0.9,6.4,6.6,3.4L93.9,28.6z"/>
	<path class="st4" d="M104.2,49c0,0-5.2,4.5,1.5,8s4.9,36.7,14.6,45.3c9.8,8.6,25.6,4,25.6,4L127,70.5l-3.7-17.9l-9.6-1.9L104.2,49z
		"/>
	<path class="st3" d="M110.8,24.1c0,0,4.9-2.7,5.2,0s2,6.2-4.5,5.9L110.8,24.1z"/>
	<path class="st10" d="M118,45.4c0,0-12.1-5-14.9,0s13.3,8.7,13.3,8.7L118,45.4z"/>
	<path class="st3" d="M118,45.4c0,0-12.1-5-14.9,0s13.3,8.7,13.3,8.7L118,45.4z"/>
	<path class="st3" d="M186.8,94.5c0,0,13,34.6-2.3,42.7c-15.3,8.1-58.9-36.5-68.1-83.1l1.6-8.7c0,0,15.4,16.9,21.2,27.2
		s23.8,24,23.8,24L186.8,94.5z"/>
	<path class="st11" d="M94.4,153.7l-10.1-50.5c-0.2-1.2,0.7-2.3,1.9-2.3H168c1.1,0,2,1,1.9,2.1l-6.4,51.8c-0.1,1-0.9,1.7-1.9,1.7
		l-65.3-1.3C95.3,155.2,94.6,154.5,94.4,153.7z"/>
	<circle class="st12" cx="127" cy="127.5" r="5.9"/>
	<rect x="3" y="153.9" class="st13" width="239.7" height="17"/>
	<rect x="210.9" y="129.8" class="st9" width="18.4" height="24.2"/>
	<path class="st14" d="M214.6,135.9h-6.5c-3.9,0-7,3.1-7,7l0,0c0,3.8,3.1,7,7,7l0,0h6.5"/>
	<circle class="st12" cx="221.8" cy="142.9" r="5.4"/>
	<path class="st15" d="M213,129.8c0,0-4.8-13.1,7.1-15.2c11.9-2.2,14.4-6.5,7.1-15.5s-5.1-15.5,2.1-16.7s17.8,11.8,23.1-4.1
		c5.3-15.9,15.8-10.2,19.8,0s11.2,26.3-10.5,27.6c-21.7,1.2-11.2,16.7-18.9,19.7c-4.4,1.7-8.9,3.1-13.5,4.3L213,129.8z"/>
	<path class="st11" d="M270.1,162.4H7.3c-2.3,0-4.3-1.9-4.3-4.3l0,0c0-2.3,1.9-4.3,4.3-4.3h262.8c2.3,0,4.3,1.9,4.3,4.3l0,0
		C274.3,160.5,272.4,162.4,270.1,162.4z"/>
</g>
</svg>
